<?xml version="1.0" encoding="UTF-8" standalone="no"?><svg xmlns="http://www.w3.org/2000/svg" xmlns:xlink="http://www.w3.org/1999/xlink" contentScriptType="application/ecmascript" contentStyleType="text/css" height="657px" preserveAspectRatio="none" style="width:1038px;height:657px;" version="1.1" viewBox="0 0 1038 657" width="1038px" zoomAndPan="magnify"><defs><filter height="300%" id="f1pul5qpf7nd2t" width="300%" x="-1" y="-1"><feGaussianBlur result="blurOut" stdDeviation="3.0"/><feColorMatrix in="blurOut" result="blurOut2" type="matrix" values="0 0 0 0 0 0 0 0 0 0 0 0 0 0 0 0 0 0 .4 0"/><feOffset dx="6.0" dy="6.0" in="blurOut2" result="blurOut3"/><feBlend in="SourceGraphic" in2="blurOut3" mode="normal"/></filter></defs><g><!--MD5=[9b9778be35503573acbb475c9af6910c]
cluster distributeur--><polygon fill="#FFFFFF" filter="url(#f1pul5qpf7nd2t)" points="33,36,166.5,36,177,71.4141,1005,71.4141,1005,639,33,639,33,36" style="stroke: #000000; stroke-width: 2.25;"/><line style="stroke: #000000; stroke-width: 2.25;" x1="33" x2="177" y1="71.4141" y2="71.4141"/><text fill="#000000" font-family="sans-serif" font-size="21" font-weight="bold" lengthAdjust="spacingAndGlyphs" textLength="124.5" x="39" y="60.7998">distributeur</text><!--MD5=[ed6624c6556d5e7b1bd23032162d20b7]
class Client--><rect fill="#FEFECE" filter="url(#f1pul5qpf7nd2t)" height="72" id="Client" style="stroke: #A80036; stroke-width: 2.25;" width="96" x="559.5" y="121.5"/><ellipse cx="582" cy="145.5" fill="#ADD1B2" rx="16.5" ry="16.5" style="stroke: #A80036; stroke-width: 1.5;"/><path d="M585,140.25 Q585.3047,139.5 585.6563,139.125 Q586.0078,138.75 586.4063,138.75 Q587.1094,138.75 587.5547,139.1719 Q588,139.5938 588,140.5781 L588,142.9219 Q588,143.9063 587.5781,144.3281 Q587.1563,144.75 586.5,144.75 Q585.9141,144.75 585.5391,144.4922 Q585.1641,144.2344 585,143.5547 Q584.9297,143.0859 584.6719,142.8281 Q584.2031,142.3359 583.3594,142.0547 Q582.5156,141.75 581.6719,141.75 Q580.6172,141.75 579.7266,142.1719 Q578.8594,142.5938 578.1797,143.5313 Q577.5,144.4688 577.5,145.7578 L577.5,147.1406 Q577.5,148.6875 578.7656,149.7188 Q580.0313,150.75 582.2813,150.75 Q583.6172,150.75 584.5547,150.4453 Q585.0938,150.2813 585.7031,149.7422 Q586.1016,149.4375 586.3125,149.3438 Q586.5234,149.25 586.7813,149.25 Q587.2734,149.25 587.625,149.6484 Q588,150.0234 588,150.5625 Q588,151.0781 587.4844,151.6875 Q586.7344,152.5781 585.5391,153.0703 Q583.9688,153.75 582.0469,153.75 Q579.7969,153.75 577.9922,152.8594 Q576.5391,152.1563 575.5078,150.6328 Q574.5,149.1094 574.5,147.3047 L574.5,145.6641 Q574.5,143.7891 575.3906,142.1484 Q576.3047,140.5078 577.875,139.6406 Q579.4688,138.75 581.25,138.75 Q582.3281,138.75 583.2656,139.125 Q584.2031,139.5 585,140.25 Z "/><text fill="#000000" font-family="sans-serif" font-size="18" lengthAdjust="spacingAndGlyphs" textLength="48" x="603" y="152.8652">Client</text><line style="stroke: #A80036; stroke-width: 2.25;" x1="561" x2="654" y1="169.5" y2="169.5"/><line style="stroke: #A80036; stroke-width: 2.25;" x1="561" x2="654" y1="181.5" y2="181.5"/><!--MD5=[a5d831dfe3c6249480489ef6c54ce188]
class MachineEtat--><rect fill="#FEFECE" filter="url(#f1pul5qpf7nd2t)" height="134.2617" id="MachineEtat" style="stroke: #A80036; stroke-width: 2.25;" width="273" x="708" y="90"/><ellipse cx="787.875" cy="114" fill="#B4A7E5" rx="16.5" ry="16.5" style="stroke: #A80036; stroke-width: 1.5;"/><path d="M789.375,109.5 L789.375,118.5 L792.375,118.5 L793.1016,118.5 L793.875,119.4375 L793.875,120 L793.875,120.5625 L793.1016,121.5 L792.375,121.5 L783.375,121.5 L782.6484,121.5 L781.875,120.5625 L781.875,120 L781.875,119.4375 L782.6484,118.5 L783.375,118.5 L786.375,118.5 L786.375,109.5 L783.375,109.5 L782.6484,109.5 L781.875,108.5625 L781.875,108 L781.875,107.4375 L782.6484,106.5 L783.375,106.5 L792.375,106.5 L793.1016,106.5 L793.875,107.4375 L793.875,108 L793.875,108.5625 L793.1016,109.5 L792.375,109.5 L789.375,109.5 Z "/><text fill="#000000" font-family="sans-serif" font-size="18" font-style="italic" lengthAdjust="spacingAndGlyphs" textLength="100.5" x="818.625" y="121.3652">MachineEtat</text><line style="stroke: #A80036; stroke-width: 2.25;" x1="709.5" x2="979.5" y1="138" y2="138"/><line style="stroke: #A80036; stroke-width: 2.25;" x1="709.5" x2="979.5" y1="150" y2="150"/><ellipse cx="724.5" cy="166.5" fill="#84BE84" rx="4.5" ry="4.5" style="stroke: #038048; stroke-width: 1.5;"/><text fill="#000000" font-family="sans-serif" font-size="16.5" lengthAdjust="spacingAndGlyphs" textLength="228" x="738" y="173.1284">give(MachineEtat m, int n) : void</text><ellipse cx="724.5" cy="187.2539" fill="#84BE84" rx="4.5" ry="4.5" style="stroke: #038048; stroke-width: 1.5;"/><text fill="#000000" font-family="sans-serif" font-size="16.5" lengthAdjust="spacingAndGlyphs" textLength="234" x="738" y="193.8823">askCoffee(MachineEtat m) : void</text><ellipse cx="724.5" cy="208.0078" fill="#84BE84" rx="4.5" ry="4.5" style="stroke: #038048; stroke-width: 1.5;"/><text fill="#000000" font-family="sans-serif" font-size="16.5" lengthAdjust="spacingAndGlyphs" textLength="211.5" x="738" y="214.6362">askTee(MachineEtat m) : void</text><!--MD5=[1c3d7e153a2a40832b1627facfb83c48]
class Distributeur--><rect fill="#FEFECE" filter="url(#f1pul5qpf7nd2t)" height="300.293" id="Distributeur" style="stroke: #A80036; stroke-width: 2.25;" width="213" x="768" y="315"/><ellipse cx="821.55" cy="339" fill="#ADD1B2" rx="16.5" ry="16.5" style="stroke: #A80036; stroke-width: 1.5;"/><path d="M824.55,333.75 Q824.8547,333 825.2063,332.625 Q825.5578,332.25 825.9563,332.25 Q826.6594,332.25 827.1047,332.6719 Q827.55,333.0938 827.55,334.0781 L827.55,336.4219 Q827.55,337.4063 827.1281,337.8281 Q826.7063,338.25 826.05,338.25 Q825.4641,338.25 825.0891,337.9922 Q824.7141,337.7344 824.55,337.0547 Q824.4797,336.5859 824.2219,336.3281 Q823.7531,335.8359 822.9094,335.5547 Q822.0656,335.25 821.2219,335.25 Q820.1672,335.25 819.2766,335.6719 Q818.4094,336.0938 817.7297,337.0313 Q817.05,337.9688 817.05,339.2578 L817.05,340.6406 Q817.05,342.1875 818.3156,343.2188 Q819.5813,344.25 821.8313,344.25 Q823.1672,344.25 824.1047,343.9453 Q824.6438,343.7813 825.2531,343.2422 Q825.6516,342.9375 825.8625,342.8438 Q826.0734,342.75 826.3313,342.75 Q826.8234,342.75 827.175,343.1484 Q827.55,343.5234 827.55,344.0625 Q827.55,344.5781 827.0344,345.1875 Q826.2844,346.0781 825.0891,346.5703 Q823.5188,347.25 821.5969,347.25 Q819.3469,347.25 817.5422,346.3594 Q816.0891,345.6563 815.0578,344.1328 Q814.05,342.6094 814.05,340.8047 L814.05,339.1641 Q814.05,337.2891 814.9406,335.6484 Q815.8547,334.0078 817.425,333.1406 Q819.0188,332.25 820.8,332.25 Q821.8781,332.25 822.8156,332.625 Q823.7531,333 824.55,333.75 Z "/><text fill="#000000" font-family="sans-serif" font-size="18" lengthAdjust="spacingAndGlyphs" textLength="96" x="849.45" y="346.3652">Distributeur</text><line style="stroke: #A80036; stroke-width: 2.25;" x1="769.5" x2="979.5" y1="363" y2="363"/><rect fill="none" height="9" style="stroke: #C82930; stroke-width: 1.5;" width="9" x="780" y="375"/><text fill="#000000" font-family="sans-serif" font-size="16.5" lengthAdjust="spacingAndGlyphs" textLength="81" x="798" y="386.1284">somme : int</text><rect fill="none" height="9" style="stroke: #C82930; stroke-width: 1.5;" width="9" x="780" y="395.7539"/><text fill="#000000" font-family="sans-serif" font-size="16.5" lengthAdjust="spacingAndGlyphs" textLength="171" x="798" y="406.8823">State : DistributeurState</text><line style="stroke: #A80036; stroke-width: 2.25;" x1="769.5" x2="979.5" y1="416.5078" y2="416.5078"/><polygon fill="#4177AF" points="784.5,427.0078,778.5,436.0078,790.5,436.0078" style="stroke: #1963A0; stroke-width: 1.5;"/><text fill="#000000" font-family="sans-serif" font-size="16.5" lengthAdjust="spacingAndGlyphs" textLength="123" x="798" y="439.6362">caisse() : integer</text><polygon fill="#4177AF" points="784.5,447.7617,778.5,456.7617,790.5,456.7617" style="stroke: #1963A0; stroke-width: 1.5;"/><text fill="#000000" font-family="sans-serif" font-size="16.5" lengthAdjust="spacingAndGlyphs" textLength="174" x="798" y="460.3901">ajouterCaisse() : integer</text><polygon fill="#4177AF" points="784.5,468.5156,778.5,477.5156,790.5,477.5156" style="stroke: #1963A0; stroke-width: 1.5;"/><text fill="#000000" font-family="sans-serif" font-size="16.5" lengthAdjust="spacingAndGlyphs" textLength="165" x="798" y="481.144">diminuerCaisse() : void</text><polygon fill="#4177AF" points="784.5,489.2695,778.5,498.2695,790.5,498.2695" style="stroke: #1963A0; stroke-width: 1.5;"/><text fill="#000000" font-family="sans-serif" font-size="16.5" lengthAdjust="spacingAndGlyphs" textLength="151.5" x="798" y="501.8979">reinitialisation() : void</text><polygon fill="#4177AF" points="784.5,510.0234,778.5,519.0234,790.5,519.0234" style="stroke: #1963A0; stroke-width: 1.5;"/><text fill="#000000" font-family="sans-serif" font-size="16.5" lengthAdjust="spacingAndGlyphs" textLength="115.5" x="798" y="522.6519">setState() : void</text><polygon fill="#4177AF" points="784.5,530.7773,778.5,539.7773,790.5,539.7773" style="stroke: #1963A0; stroke-width: 1.5;"/><text fill="#000000" font-family="sans-serif" font-size="16.5" lengthAdjust="spacingAndGlyphs" textLength="156" x="798" y="543.4058">give(integer n,i) : void</text><polygon fill="#4177AF" points="784.5,551.5313,778.5,560.5313,790.5,560.5313" style="stroke: #1963A0; stroke-width: 1.5;"/><text fill="#000000" font-family="sans-serif" font-size="16.5" lengthAdjust="spacingAndGlyphs" textLength="130.5" x="798" y="564.1597">askCoffee() : void</text><polygon fill="#4177AF" points="784.5,572.2852,778.5,581.2852,790.5,581.2852" style="stroke: #1963A0; stroke-width: 1.5;"/><text fill="#000000" font-family="sans-serif" font-size="16.5" lengthAdjust="spacingAndGlyphs" textLength="108" x="798" y="584.9136">askTee() : void</text><polygon fill="#4177AF" points="784.5,593.0391,778.5,602.0391,790.5,602.0391" style="stroke: #1963A0; stroke-width: 1.5;"/><text fill="#000000" font-family="sans-serif" font-size="16.5" lengthAdjust="spacingAndGlyphs" textLength="130.5" x="798" y="605.6675">getRefund() : void</text><!--MD5=[0398c700f287e792f886a48977699093]
class DistributeurValide--><rect fill="#FEFECE" filter="url(#f1pul5qpf7nd2t)" height="175.7695" id="DistributeurValide" style="stroke: #A80036; stroke-width: 2.25;" width="303" x="57" y="377.25"/><ellipse cx="128.625" cy="401.25" fill="#ADD1B2" rx="16.5" ry="16.5" style="stroke: #A80036; stroke-width: 1.5;"/><path d="M131.625,396 Q131.9297,395.25 132.2813,394.875 Q132.6328,394.5 133.0313,394.5 Q133.7344,394.5 134.1797,394.9219 Q134.625,395.3438 134.625,396.3281 L134.625,398.6719 Q134.625,399.6563 134.2031,400.0781 Q133.7813,400.5 133.125,400.5 Q132.5391,400.5 132.1641,400.2422 Q131.7891,399.9844 131.625,399.3047 Q131.5547,398.8359 131.2969,398.5781 Q130.8281,398.0859 129.9844,397.8047 Q129.1406,397.5 128.2969,397.5 Q127.2422,397.5 126.3516,397.9219 Q125.4844,398.3438 124.8047,399.2813 Q124.125,400.2188 124.125,401.5078 L124.125,402.8906 Q124.125,404.4375 125.3906,405.4688 Q126.6563,406.5 128.9063,406.5 Q130.2422,406.5 131.1797,406.1953 Q131.7188,406.0313 132.3281,405.4922 Q132.7266,405.1875 132.9375,405.0938 Q133.1484,405 133.4063,405 Q133.8984,405 134.25,405.3984 Q134.625,405.7734 134.625,406.3125 Q134.625,406.8281 134.1094,407.4375 Q133.3594,408.3281 132.1641,408.8203 Q130.5938,409.5 128.6719,409.5 Q126.4219,409.5 124.6172,408.6094 Q123.1641,407.9063 122.1328,406.3828 Q121.125,404.8594 121.125,403.0547 L121.125,401.4141 Q121.125,399.5391 122.0156,397.8984 Q122.9297,396.2578 124.5,395.3906 Q126.0938,394.5 127.875,394.5 Q128.9531,394.5 129.8906,394.875 Q130.8281,395.25 131.625,396 Z "/><text fill="#000000" font-family="sans-serif" font-size="18" lengthAdjust="spacingAndGlyphs" textLength="147" x="159.375" y="408.6152">DistributeurValide</text><line style="stroke: #A80036; stroke-width: 2.25;" x1="58.5" x2="358.5" y1="425.25" y2="425.25"/><rect fill="none" height="9" style="stroke: #C82930; stroke-width: 1.5;" width="9" x="69" y="437.25"/><text fill="#000000" font-family="sans-serif" font-size="16.5" lengthAdjust="spacingAndGlyphs" text-decoration="underline" textLength="61.5" x="87" y="448.3784">instance</text><line style="stroke: #A80036; stroke-width: 2.25;" x1="58.5" x2="358.5" y1="458.0039" y2="458.0039"/><ellipse cx="73.5" cy="474.5039" fill="#84BE84" rx="4.5" ry="4.5" style="stroke: #038048; stroke-width: 1.5;"/><text fill="#000000" font-family="sans-serif" font-size="16.5" lengthAdjust="spacingAndGlyphs" textLength="229.5" x="87" y="481.1323">getInstance() : DistributeurState</text><ellipse cx="73.5" cy="495.2578" fill="#84BE84" rx="4.5" ry="4.5" style="stroke: #038048; stroke-width: 1.5;"/><text fill="#000000" font-family="sans-serif" font-size="16.5" lengthAdjust="spacingAndGlyphs" textLength="252" x="87" y="501.8862">give(DistributeurState a, int i) : void</text><ellipse cx="73.5" cy="516.0117" fill="#84BE84" rx="4.5" ry="4.5" style="stroke: #038048; stroke-width: 1.5;"/><text fill="#000000" font-family="sans-serif" font-size="16.5" lengthAdjust="spacingAndGlyphs" textLength="264" x="87" y="522.6401">askCoffee(DistributeurState a) : void</text><ellipse cx="73.5" cy="536.7656" fill="#84BE84" rx="4.5" ry="4.5" style="stroke: #038048; stroke-width: 1.5;"/><text fill="#000000" font-family="sans-serif" font-size="16.5" lengthAdjust="spacingAndGlyphs" textLength="241.5" x="87" y="543.394">askTee(DistributeurState a) : void</text><!--MD5=[5d4b0aed00e6aacae265e5f2e0ef79f8]
class DistributeurState--><rect fill="#FEFECE" filter="url(#f1pul5qpf7nd2t)" height="72" id="DistributeurState" style="stroke: #A80036; stroke-width: 2.25;" width="186" x="217.5" y="121.5"/><ellipse cx="240" cy="145.5" fill="#B4A7E5" rx="16.5" ry="16.5" style="stroke: #A80036; stroke-width: 1.5;"/><path d="M241.5,141 L241.5,150 L244.5,150 L245.2266,150 L246,150.9375 L246,151.5 L246,152.0625 L245.2266,153 L244.5,153 L235.5,153 L234.7734,153 L234,152.0625 L234,151.5 L234,150.9375 L234.7734,150 L235.5,150 L238.5,150 L238.5,141 L235.5,141 L234.7734,141 L234,140.0625 L234,139.5 L234,138.9375 L234.7734,138 L235.5,138 L244.5,138 L245.2266,138 L246,138.9375 L246,139.5 L246,140.0625 L245.2266,141 L244.5,141 L241.5,141 Z "/><text fill="#000000" font-family="sans-serif" font-size="18" font-style="italic" lengthAdjust="spacingAndGlyphs" textLength="138" x="261" y="152.8652">DistributeurState</text><line style="stroke: #A80036; stroke-width: 2.25;" x1="219" x2="402" y1="169.5" y2="169.5"/><line style="stroke: #A80036; stroke-width: 2.25;" x1="219" x2="402" y1="181.5" y2="181.5"/><!--MD5=[3c0f2ed557c69812e075093f1d78ebb6]
class DistributeurInvalide--><rect fill="#FEFECE" filter="url(#f1pul5qpf7nd2t)" height="175.7695" id="DistributeurInvalide" style="stroke: #A80036; stroke-width: 2.25;" width="303" x="412.5" y="377.25"/><ellipse cx="478.2" cy="401.25" fill="#ADD1B2" rx="16.5" ry="16.5" style="stroke: #A80036; stroke-width: 1.5;"/><path d="M481.2,396 Q481.5047,395.25 481.8563,394.875 Q482.2078,394.5 482.6063,394.5 Q483.3094,394.5 483.7547,394.9219 Q484.2,395.3438 484.2,396.3281 L484.2,398.6719 Q484.2,399.6563 483.7781,400.0781 Q483.3563,400.5 482.7,400.5 Q482.1141,400.5 481.7391,400.2422 Q481.3641,399.9844 481.2,399.3047 Q481.1297,398.8359 480.8719,398.5781 Q480.4031,398.0859 479.5594,397.8047 Q478.7156,397.5 477.8719,397.5 Q476.8172,397.5 475.9266,397.9219 Q475.0594,398.3438 474.3797,399.2813 Q473.7,400.2188 473.7,401.5078 L473.7,402.8906 Q473.7,404.4375 474.9656,405.4688 Q476.2313,406.5 478.4813,406.5 Q479.8172,406.5 480.7547,406.1953 Q481.2938,406.0313 481.9031,405.4922 Q482.3016,405.1875 482.5125,405.0938 Q482.7234,405 482.9813,405 Q483.4734,405 483.825,405.3984 Q484.2,405.7734 484.2,406.3125 Q484.2,406.8281 483.6844,407.4375 Q482.9344,408.3281 481.7391,408.8203 Q480.1688,409.5 478.2469,409.5 Q475.9969,409.5 474.1922,408.6094 Q472.7391,407.9063 471.7078,406.3828 Q470.7,404.8594 470.7,403.0547 L470.7,401.4141 Q470.7,399.5391 471.5906,397.8984 Q472.5047,396.2578 474.075,395.3906 Q475.6688,394.5 477.45,394.5 Q478.5281,394.5 479.4656,394.875 Q480.4031,395.25 481.2,396 Z "/><text fill="#000000" font-family="sans-serif" font-size="18" lengthAdjust="spacingAndGlyphs" textLength="159" x="508.8" y="408.6152">DistributeurInvalide</text><line style="stroke: #A80036; stroke-width: 2.25;" x1="414" x2="714" y1="425.25" y2="425.25"/><rect fill="none" height="9" style="stroke: #C82930; stroke-width: 1.5;" width="9" x="424.5" y="437.25"/><text fill="#000000" font-family="sans-serif" font-size="16.5" lengthAdjust="spacingAndGlyphs" text-decoration="underline" textLength="61.5" x="442.5" y="448.3784">instance</text><line style="stroke: #A80036; stroke-width: 2.25;" x1="414" x2="714" y1="458.0039" y2="458.0039"/><ellipse cx="429" cy="474.5039" fill="#84BE84" rx="4.5" ry="4.5" style="stroke: #038048; stroke-width: 1.5;"/><text fill="#000000" font-family="sans-serif" font-size="16.5" lengthAdjust="spacingAndGlyphs" textLength="229.5" x="442.5" y="481.1323">getInstance() : DistributeurState</text><ellipse cx="429" cy="495.2578" fill="#84BE84" rx="4.5" ry="4.5" style="stroke: #038048; stroke-width: 1.5;"/><text fill="#000000" font-family="sans-serif" font-size="16.5" lengthAdjust="spacingAndGlyphs" textLength="252" x="442.5" y="501.8862">give(DistributeurState a, int i) : void</text><ellipse cx="429" cy="516.0117" fill="#84BE84" rx="4.5" ry="4.5" style="stroke: #038048; stroke-width: 1.5;"/><text fill="#000000" font-family="sans-serif" font-size="16.5" lengthAdjust="spacingAndGlyphs" textLength="264" x="442.5" y="522.6401">askCoffee(DistributeurState a) : void</text><ellipse cx="429" cy="536.7656" fill="#84BE84" rx="4.5" ry="4.5" style="stroke: #038048; stroke-width: 1.5;"/><text fill="#000000" font-family="sans-serif" font-size="16.5" lengthAdjust="spacingAndGlyphs" textLength="241.5" x="442.5" y="543.394">askTee(DistributeurState a) : void</text><!--MD5=[9cfbe56c5fc75ca3813ee1b281d848af]
reverse link DistributeurState to DistributeurValide--><path d="M289.14,222.75 C274.14,267.555 253.89,328.005 237.435,377.13 " fill="none" id="DistributeurState&lt;-DistributeurValide" style="stroke: #A80036; stroke-width: 1.5; stroke-dasharray: 7.0,7.0;"/><polygon fill="none" points="279.315,219.045,298.8,193.935,299.22,225.705,279.315,219.045" style="stroke: #A80036; stroke-width: 1.5;"/><!--MD5=[344a27dccd71a0029b8fc9b3275d562d]
reverse link DistributeurState to DistributeurInvalide--><path d="M358.785,217.005 C396.48,262.275 449.43,325.875 492.105,377.13 " fill="none" id="DistributeurState&lt;-DistributeurInvalide" style="stroke: #A80036; stroke-width: 1.5; stroke-dasharray: 7.0,7.0;"/><polygon fill="none" points="350.7,223.71,339.585,193.935,366.84,210.27,350.7,223.71" style="stroke: #A80036; stroke-width: 1.5;"/><!--MD5=[539248dc3b03a43f2072177aab4f60b1]
link Client to MachineEtat--><!--MD5=[8b58b4e0cf31dff1f93307b649a3abec]
link Client to Distributeur--><!--MD5=[9f8b144782a8be74193f926af6db0269]
@startuml
package distributeur {
    class Client{}
    interface MachineEtat{
        + give(MachineEtat m, int n) : void
        + askCoffee(MachineEtat m) : void
        + askTee(MachineEtat m) : void
    }

    class Distributeur {
        - somme : int
        - State : DistributeurState
        ~ caisse() : integer
        ~ ajouterCaisse() : integer
        ~ diminuerCaisse() : void
        ~ reinitialisation() : void
        ~ setState() : void
        ~ give(integer n,i) : void
        ~ askCoffee() : void
        ~ askTee() : void
        ~ getRefund() : void

    }

    class DistributeurValide implements DistributeurState{
        - {static} instance
        + getInstance() : DistributeurState
        + give(DistributeurState a, int i) : void
        + askCoffee(DistributeurState a) : void
        + askTee(DistributeurState a) : void
    }

    class DistributeurInvalide implements DistributeurState{
        - {static} instance
        + getInstance() : DistributeurState
        + give(DistributeurState a, int i) : void
        + askCoffee(DistributeurState a) : void
        + askTee(DistributeurState a) : void
    }
}

@enduml

PlantUML version 1.2020.09(Sun May 10 12:51:06 CEST 2020)
(GPL source distribution)
Java Runtime: OpenJDK Runtime Environment
JVM: OpenJDK 64-Bit Server VM
Java Version: 11.0.8+10-b944.31
Operating System: Windows 10
Default Encoding: Cp1252
Language: fr
Country: FR
--></g></svg>